<svg width="1440" height="1024" viewBox="0 0 1440 1024" fill="none" xmlns="http://www.w3.org/2000/svg">
<rect width="1440" height="1024" fill="#235390"/>
<circle cx="648.5" cy="169.5" r="4.5" fill="#C4C4C4"/>
<circle cx="221.5" cy="799.5" r="4.5" fill="#C4C4C4"/>
<circle cx="777.5" cy="695.5" r="4.5" fill="#C4C4C4"/>
<circle cx="330.5" cy="650.5" r="4.5" fill="#C4C4C4"/>
<circle cx="810.5" cy="195.5" r="4.5" fill="#C4C4C4"/>
<circle cx="471.5" cy="14.5" r="4.5" fill="#C4C4C4"/>
<circle cx="973.5" cy="21.5" r="4.5" fill="#C4C4C4"/>
<circle cx="383.5" cy="825.5" r="4.5" fill="#C4C4C4"/>
<circle cx="1024.5" cy="861.5" r="4.5" fill="#C4C4C4"/>
<circle cx="978.5" cy="265.5" r="4.5" fill="#C4C4C4"/>
<circle cx="639.5" cy="84.5" r="4.5" fill="#C4C4C4"/>
<circle cx="1141.5" cy="91.5" r="4.5" fill="#C4C4C4"/>
<circle cx="551.5" cy="895.5" r="4.5" fill="#C4C4C4"/>
<circle cx="1192.5" cy="931.5" r="4.5" fill="#C4C4C4"/>
<circle cx="1146.5" cy="335.5" r="4.5" fill="#C4C4C4"/>
<circle cx="719.5" cy="965.5" r="4.5" fill="#C4C4C4"/>
<circle cx="1342.5" cy="940.5" r="4.5" fill="#C4C4C4"/>
<circle cx="1126.5" cy="178.5" r="4.5" fill="#C4C4C4"/>
<circle cx="699.5" cy="808.5" r="4.5" fill="#C4C4C4"/>
<circle cx="1373.5" cy="839.5" r="4.5" fill="#C4C4C4"/>
<circle cx="1282.5" cy="78.5" r="4.5" fill="#C4C4C4"/>
<circle cx="1314.5" cy="256.5" r="4.5" fill="#C4C4C4"/>
<circle cx="1278.5" cy="686.5" r="4.5" fill="#C4C4C4"/>
<circle cx="603.5" cy="411.5" r="4.5" fill="#C4C4C4"/>
<circle cx="1229.5" cy="820.5" r="4.5" fill="#C4C4C4"/>
<circle cx="1015.5" cy="714.5" r="4.5" fill="#C4C4C4"/>
<circle cx="568.5" cy="669.5" r="4.5" fill="#C4C4C4"/>
<circle cx="356.5" cy="217.5" r="4.5" fill="#C4C4C4"/>
<circle cx="174.5" cy="164.5" r="4.5" fill="#C4C4C4"/>
<circle cx="250.5" cy="295.5" r="4.5" fill="#C4C4C4"/>
<circle cx="86.5" cy="367.5" r="4.5" fill="#C4C4C4"/>
<circle cx="48.5" cy="525.5" r="4.5" fill="#C4C4C4"/>
<circle cx="136.5" cy="705.5" r="4.5" fill="#C4C4C4"/>
<circle cx="118.5" cy="468.5" r="4.5" fill="#C4C4C4"/>
<circle cx="554.5" cy="256.5" r="4.5" fill="#C4C4C4"/>
<circle cx="127.5" cy="886.5" r="4.5" fill="#C4C4C4"/>
<circle cx="841.5" cy="839.5" r="4.5" fill="#C4C4C4"/>
<circle cx="724.5" cy="544.5" r="4.5" fill="#C4C4C4"/>
<circle cx="277.5" cy="499.5" r="4.5" fill="#C4C4C4"/>
<circle cx="403.5" cy="561.5" r="4.5" fill="#C4C4C4"/>
<circle cx="403.5" cy="443.5" r="4.5" fill="#C4C4C4"/>
<circle cx="756.5" cy="299.5" r="4.5" fill="#C4C4C4"/>
<circle cx="417.5" cy="118.5" r="4.5" fill="#C4C4C4"/>
<circle cx="919.5" cy="125.5" r="4.5" fill="#C4C4C4"/>
<circle cx="329.5" cy="929.5" r="4.5" fill="#C4C4C4"/>
<circle cx="970.5" cy="965.5" r="4.5" fill="#C4C4C4"/>
</svg>
